<svg width="177" height="34" viewBox="0 0 177 34" fill="none" xmlns="http://www.w3.org/2000/svg">
<g id="Logo">
<path d="M82.7123 13.939C82.6008 13.5473 82.4442 13.2011 82.2424 12.9006C82.0407 12.5948 81.7938 12.3372 81.5018 12.1279C81.2151 11.9133 80.886 11.7496 80.5143 11.6369C80.148 11.5242 79.7419 11.4679 79.2959 11.4679C78.4624 11.4679 77.7297 11.6772 77.0979 12.0957C76.4715 12.5143 75.983 13.1233 75.6326 13.9229C75.2822 14.7171 75.107 15.6884 75.107 16.8367C75.107 17.9851 75.2796 18.9617 75.6247 19.7666C75.9698 20.5716 76.4582 21.186 77.09 21.6099C77.7217 22.0285 78.4677 22.2378 79.3277 22.2378C80.1082 22.2378 80.7745 22.0982 81.3266 21.8192C81.8841 21.5348 82.3088 21.135 82.6008 20.6199C82.8981 20.1047 83.0467 19.4956 83.0467 18.7927L83.7475 18.8973H79.5428V16.2733H86.3676V18.35C86.3676 19.7988 86.065 21.0438 85.4597 22.0848C84.8545 23.1205 84.021 23.92 82.9591 24.4835C81.8973 25.0416 80.6816 25.3206 79.3118 25.3206C77.7828 25.3206 76.4396 24.9799 75.2822 24.2984C74.1249 23.6115 73.2223 22.6375 72.5746 21.3765C71.9322 20.1101 71.611 18.6075 71.611 16.8689C71.611 15.5327 71.8021 14.3414 72.1844 13.295C72.572 12.2433 73.1135 11.3525 73.809 10.6227C74.5045 9.8929 75.3141 9.3375 76.2379 8.95651C77.1616 8.57551 78.1624 8.38501 79.2401 8.38501C80.1639 8.38501 81.024 8.52185 81.8204 8.79552C82.6167 9.06383 83.3228 9.44483 83.9387 9.93851C84.5598 10.4322 85.0668 11.0198 85.4597 11.7013C85.8526 12.3774 86.1048 13.1233 86.2163 13.939H82.7123Z" fill="black"/>
<path d="M90.8167 25.0952H87.1216L92.7518 8.61039H97.1955L102.818 25.0952H99.1227L95.0374 12.3774H94.91L90.8167 25.0952ZM90.5857 18.6156H99.3138V21.3362H90.5857V18.6156Z" fill="black"/>
<path d="M110.114 25.0952H104.332V8.61039H110.162C111.802 8.61039 113.214 8.94041 114.398 9.60045C115.582 10.2551 116.493 11.1969 117.13 12.4257C117.772 13.6546 118.093 15.1249 118.093 16.8367C118.093 18.5539 117.772 20.0296 117.13 21.2638C116.493 22.498 115.577 23.4451 114.382 24.1052C113.193 24.7652 111.77 25.0952 110.114 25.0952ZM107.781 22.109H109.971C110.99 22.109 111.847 21.9265 112.543 21.5616C113.244 21.1914 113.769 20.6199 114.12 19.8471C114.475 19.069 114.653 18.0656 114.653 16.8367C114.653 15.6186 114.475 14.6232 114.12 13.8504C113.769 13.0777 113.246 12.5089 112.551 12.144C111.855 11.7791 110.998 11.5967 109.979 11.5967H107.781V22.109Z" fill="black"/>
<path d="M131.014 13.939C130.902 13.5473 130.746 13.2011 130.544 12.9006C130.342 12.5948 130.095 12.3372 129.803 12.1279C129.517 11.9133 129.188 11.7496 128.816 11.6369C128.45 11.5242 128.043 11.4679 127.597 11.4679C126.764 11.4679 126.031 11.6772 125.4 12.0957C124.773 12.5143 124.285 13.1233 123.934 13.9229C123.584 14.7171 123.409 15.6884 123.409 16.8367C123.409 17.9851 123.581 18.9617 123.926 19.7666C124.271 20.5716 124.76 21.186 125.392 21.6099C126.023 22.0285 126.769 22.2378 127.629 22.2378C128.41 22.2378 129.076 22.0982 129.628 21.8192C130.186 21.5348 130.61 21.135 130.902 20.6199C131.2 20.1047 131.348 19.4956 131.348 18.7927L132.049 18.8973H127.844V16.2733H134.669V18.35C134.669 19.7988 134.367 21.0438 133.761 22.0848C133.156 23.1205 132.323 23.92 131.261 24.4835C130.199 25.0416 128.983 25.3206 127.613 25.3206C126.084 25.3206 124.741 24.9799 123.584 24.2984C122.426 23.6115 121.524 22.6375 120.876 21.3765C120.234 20.1101 119.913 18.6075 119.913 16.8689C119.913 15.5327 120.104 14.3414 120.486 13.295C120.874 12.2433 121.415 11.3525 122.111 10.6227C122.806 9.8929 123.616 9.3375 124.539 8.95651C125.463 8.57551 126.464 8.38501 127.542 8.38501C128.466 8.38501 129.326 8.52185 130.122 8.79552C130.918 9.06383 131.624 9.44483 132.24 9.93851C132.861 10.4322 133.368 11.0198 133.761 11.7013C134.154 12.3774 134.406 13.1233 134.518 13.939H131.014Z" fill="black"/>
<path d="M136.811 25.0952V8.61039H147.801V11.484H140.259V15.412H147.235V18.2856H140.259V22.2217H147.832V25.0952H136.811Z" fill="black"/>
<path d="M149.472 11.484V8.61039H162.867V11.484H157.874V25.0952H154.466V11.484H149.472Z" fill="black"/>
<path d="M173.472 13.3514C173.408 12.7021 173.135 12.1977 172.652 11.8381C172.169 11.4786 171.513 11.2988 170.685 11.2988C170.122 11.2988 169.647 11.3793 169.259 11.5403C168.872 11.6959 168.575 11.9133 168.367 12.1923C168.166 12.4713 168.065 12.7879 168.065 13.1421C168.054 13.4373 168.115 13.6948 168.248 13.9148C168.386 14.1349 168.575 14.3254 168.813 14.4863C169.052 14.642 169.328 14.7788 169.642 14.8968C169.955 15.0095 170.289 15.1061 170.645 15.1866L172.11 15.5408C172.822 15.7018 173.475 15.9164 174.069 16.1847C174.664 16.453 175.179 16.7831 175.614 17.1748C176.05 17.5665 176.387 18.028 176.626 18.5593C176.87 19.0905 176.995 19.6996 177 20.3864C176.995 21.3953 176.74 22.27 176.235 23.0105C175.736 23.7456 175.014 24.3171 174.069 24.725C173.13 25.1274 171.996 25.3287 170.669 25.3287C169.352 25.3287 168.206 25.1248 167.229 24.7169C166.257 24.3091 165.498 23.7054 164.951 22.9058C164.41 22.1009 164.126 21.1055 164.099 19.9196H167.436C167.473 20.4723 167.629 20.9338 167.906 21.304C168.187 21.6689 168.561 21.9453 169.028 22.1331C169.501 22.3156 170.035 22.4068 170.629 22.4068C171.213 22.4068 171.72 22.3209 172.15 22.1492C172.586 21.9775 172.923 21.7387 173.162 21.4328C173.4 21.127 173.52 20.7755 173.52 20.3784C173.52 20.0081 173.411 19.6969 173.193 19.4447C172.981 19.1925 172.668 18.9778 172.254 18.8007C171.845 18.6236 171.343 18.4627 170.749 18.3178L168.973 17.867C167.598 17.5289 166.512 17.0004 165.716 16.2813C164.919 15.5623 164.524 14.5937 164.529 13.3755C164.524 12.3774 164.786 11.5054 165.317 10.7595C165.854 10.0136 166.589 9.43141 167.523 9.01285C168.458 8.59429 169.52 8.38501 170.709 8.38501C171.919 8.38501 172.976 8.59429 173.878 9.01285C174.786 9.43141 175.492 10.0136 175.997 10.7595C176.501 11.5054 176.761 12.3694 176.777 13.3514H173.472Z" fill="black"/>
<path d="M65.1692 34H57.3616C57.0162 33.9996 56.685 33.8618 56.4405 33.6168L44.5618 21.6796C43.8349 20.9359 42.849 20.5049 41.812 20.4775C41.2945 20.4681 40.7804 20.5623 40.2996 20.7547C39.8188 20.947 39.3809 21.2337 39.0115 21.598C38.6421 21.9623 38.3487 22.3968 38.1482 22.8763C37.9478 23.3558 37.8444 23.8705 37.844 24.3906V31.3822H40.4438V27.7225C40.4438 27.0283 40.7183 26.3624 41.2068 25.8715C41.6953 25.3805 42.3579 25.1047 43.0488 25.1047V32.6911C43.0488 33.0382 42.9116 33.3712 42.6673 33.6166C42.423 33.8621 42.0917 34 41.7463 34H36.5426C36.1972 34 35.8659 33.8621 35.6216 33.6166C35.3773 33.3712 35.2401 33.0382 35.2401 32.6911V24.3917C35.2414 22.6695 35.9189 21.0173 37.1255 19.7943C38.332 18.5712 39.9701 17.876 41.6838 17.8597C42.5662 17.8585 43.4401 18.0337 44.2544 18.3753C45.0687 18.7169 45.8073 19.2179 46.4269 19.8493L57.9013 31.3822H62.0245L48.6339 17.9257C48.4557 17.7468 48.333 17.5199 48.2805 17.2724C48.228 17.0248 48.2479 16.7673 48.3379 16.531C48.4074 16.352 48.514 16.19 48.6505 16.0556L62.0245 2.61792H57.9013L46.3519 14.2231C45.1298 15.4486 43.4738 16.1369 41.7473 16.1369C40.0209 16.1369 38.3649 15.4486 37.1428 14.2231C36.5376 13.6187 36.0578 12.8996 35.7312 12.1074C35.4046 11.3153 35.2377 10.4659 35.2401 9.60847V1.30903C35.2401 0.961886 35.3773 0.628963 35.6216 0.383498C35.8659 0.138032 36.1972 0.000130954 36.5426 0.000130954H41.7473C42.0928 0.000130954 42.4241 0.138032 42.6683 0.383498C42.9126 0.628963 43.0498 0.961886 43.0498 1.30903V9.94774C42.359 9.94774 41.6964 9.67193 41.2078 9.181C40.7193 8.69007 40.4449 8.02423 40.4449 7.32995V2.61792H37.8451V9.5425C37.8355 10.5418 38.1991 11.5084 38.8642 12.2514C39.2207 12.6423 39.6522 12.9567 40.1328 13.1756C40.6133 13.3945 41.133 13.5135 41.6605 13.5253C42.1881 13.5372 42.7125 13.4416 43.2023 13.2445C43.6921 13.0473 44.1372 12.7526 44.5107 12.3781L56.4405 0.383376C56.6849 0.13812 57.0162 0.000295909 57.3616 0.000130954H65.1348C65.3603 -0.00302988 65.5829 0.0510751 65.782 0.157428C65.9811 0.263781 66.1502 0.418937 66.2737 0.608506C66.432 0.859817 66.5004 1.1578 66.4676 1.45339C66.4348 1.74897 66.3029 2.02453 66.0935 2.23468L51.4014 16.999L66.0632 31.7382C66.2249 31.8962 66.3442 32.0928 66.4099 32.3095C66.4757 32.5263 66.4858 32.7563 66.4394 32.978C66.3746 33.268 66.2135 33.5271 65.9827 33.7129C65.7518 33.8986 65.4649 33.9999 65.1692 34Z" fill="#1D4ED8"/>
<path d="M18.2965 34L1.02318 33.9787C0.751814 33.9787 0.491565 33.8666 0.299682 33.6671C0.107799 33.4676 0 33.197 0 32.9148V30.2615C0 29.2739 0.377296 28.3268 1.04889 27.6285C1.72048 26.9301 2.63135 26.5378 3.58112 26.5378H3.58726L18.3845 26.5602C19.1282 26.5603 19.8578 26.3494 20.4947 25.95C21.1315 25.5507 21.6514 24.9781 21.9983 24.2941C23.144 22.0464 23.743 19.5412 23.743 16.9973C23.743 14.4535 23.144 11.9483 21.9983 9.70061V9.69316C21.651 9.00897 21.1305 8.43646 20.4931 8.03745C19.8556 7.63845 19.1254 7.42812 18.3814 7.42919H7.15303L7.1602 19.664C7.1602 20.6516 6.7829 21.5987 6.11131 22.297C5.43972 22.9953 4.52885 23.3876 3.57907 23.3876H1.02318C0.751814 23.3876 0.491565 23.2755 0.299682 23.076C0.107799 22.8765 0 22.6059 0 22.3237V1.10432C0 0.822161 0.107799 0.551555 0.299682 0.352036C0.491565 0.152517 0.751814 0.0404281 1.02318 0.0404281L18.2944 0H18.3149C20.2221 0 22.3789 0.561737 24.237 1.54371C25.6961 2.31397 27.6575 3.69385 28.7155 5.89505C30.3727 9.34098 31.2355 13.1408 31.2355 16.9936C31.2355 20.8464 30.3727 24.6462 28.7155 28.0922C27.6575 30.2923 25.6971 31.6743 24.2381 32.4467C22.3759 33.434 20.2098 34 18.2965 34ZM2.04635 31.8573L18.2975 31.8775C21.3343 31.8775 25.4822 30.0689 26.8871 27.1464C28.3942 23.9932 29.1784 20.52 29.1784 16.9989C29.1784 13.4779 28.3942 10.0046 26.8871 6.85149C25.4843 3.92897 21.3506 2.12779 18.3149 2.12779H18.2975L2.04635 2.16609V21.2652H3.58112C3.98817 21.2652 4.37854 21.097 4.66636 20.7977C4.95419 20.4985 5.11589 20.0926 5.11589 19.6693L5.1077 6.37061C5.1077 6.08845 5.2155 5.81784 5.40738 5.61832C5.59927 5.4188 5.85952 5.30671 6.13088 5.30671H18.3814C19.4964 5.30469 20.5909 5.61933 21.5465 6.21668C22.5022 6.81403 23.2828 7.67141 23.8042 8.69629C23.8062 8.69897 23.8079 8.70182 23.8093 8.7048C25.1119 11.2596 25.793 14.1073 25.793 16.9989C25.793 19.8906 25.1119 22.7382 23.8093 25.2931C23.2886 26.3192 22.5083 27.1779 21.5527 27.7768C20.597 28.3756 19.5023 28.6918 18.3865 28.6912L3.58112 28.6656C3.17408 28.6656 2.7837 28.8338 2.49588 29.133C2.20805 29.4323 2.04635 29.8382 2.04635 30.2615V31.8573Z" fill="black"/>
</g>
</svg>
